<mxfile host="app.diagrams.net" modified="2024-02-07T05:02:01.831Z" agent="Mozilla/5.0 (X11; CrOS x86_64 14541.0.0) AppleWebKit/537.36 (KHTML, like Gecko) Chrome/120.0.0.0 Safari/537.36" version="23.1.1" etag="3ERXVLhOgezuY05SyHcc" type="github">
  <diagram name="ページ1" id="1Rx43zWndM3VY3Knliac">
    <mxGraphModel>
      <root>
        <mxCell id="0" />
        <mxCell id="1" parent="0" />
      </root>
    </mxGraphModel>
  </diagram>
</mxfile>
